<svg width="16" height="17" viewBox="0 0 16 17" fill="none" xmlns="http://www.w3.org/2000/svg">
<path d="M13.5 0.375C14.7305 0.375 15.75 1.39453 15.75 2.625V13.875C15.75 15.1406 14.7305 16.125 13.5 16.125H2.25C0.984375 16.125 0 15.1406 0 13.875V2.625C0 1.39453 0.984375 0.375 2.25 0.375H13.5ZM11.918 6.70312C12.3047 6.31641 12.3047 5.71875 11.918 5.33203C11.5312 4.94531 10.9336 4.94531 10.5469 5.33203L6.75 9.12891L5.16797 7.58203C4.78125 7.19531 4.18359 7.19531 3.79688 7.58203C3.41016 7.96875 3.41016 8.56641 3.79688 8.95312L6.04688 11.2031C6.43359 11.5898 7.03125 11.5898 7.41797 11.2031L11.918 6.70312Z" fill="#DD9933"/>
</svg>
