<svg width="30" height="30" viewBox="0 0 30 30" fill="none" xmlns="http://www.w3.org/2000/svg">
<circle cx="15" cy="15" r="15" fill="#DD9933"/>
<path fill-rule="evenodd" clip-rule="evenodd" d="M15.1042 1.00198L15.1047 1L14.6866 1.00592C14.3591 1.01431 14.0093 1.03155 13.722 1.05756L13.9024 3.04941C14.1164 3.03003 14.3863 3.01632 14.646 3.00833L15.0237 3.00001C16.2691 3.00244 17.4875 3.19432 18.6492 3.56474L19.2568 1.65926C18.0434 1.27237 16.7775 1.05237 15.4854 1.00826L15.1042 1.00198ZM24.5961 7.79391L26.1944 6.59165C25.3268 5.43823 24.2854 4.42384 23.1096 3.5869L21.9498 5.2163C22.9584 5.93418 23.8518 6.8045 24.5961 7.79391ZM28.9949 14.6311L26.9956 14.6829C26.9632 13.4316 26.739 12.2104 26.3349 11.0506L28.2236 10.3926C28.6954 11.747 28.9571 13.1725 28.9949 14.6311ZM24.9391 21.726L26.5944 22.8485C27.4042 21.6544 28.0258 20.3412 28.4338 18.952L26.5149 18.3883C26.1655 19.5779 25.6331 20.7026 24.9391 21.726ZM19.8495 28.1369L19.1566 26.2607C20.3185 25.8317 21.4055 25.2241 22.3808 24.4622L23.6121 26.0382C22.4746 26.9269 21.206 27.6359 19.8495 28.1369ZM11.8728 26.5888L11.3531 28.5201C12.5342 28.8379 13.7575 29 15.0103 29C15.2209 28.9998 15.4302 28.995 15.6389 28.9856L15.549 26.9877C15.3697 26.9957 15.1899 26.9998 15.0095 27C13.9332 27 12.8846 26.8611 11.8728 26.5888ZM4.1989 23.908L5.74117 22.6347C6.52941 23.5894 7.46092 24.4184 8.5007 25.0896L7.41597 26.7699C6.20352 25.9872 5.11773 25.0209 4.1989 23.908ZM3.03015 15.8623L1.03516 16.0038C1.13822 17.457 1.46475 18.8701 1.99898 20.2037L3.85555 19.4599C3.39808 18.318 3.11849 17.108 3.03015 15.8623ZM3.06136 7.68369L4.76569 8.73024C4.11913 9.78316 3.63849 10.9303 3.34338 12.1358L1.40074 11.6603C1.74542 10.2523 2.30671 8.91264 3.06136 7.68369ZM10.3301 3.94213L9.55123 2.10004C8.22021 2.66285 6.98538 3.42937 5.88959 4.36923L7.19166 5.88733C8.13136 5.08135 9.18984 4.4243 10.3301 3.94213Z" fill="white"/>
<path d="M19.5176 9.05078H14.8691L14.127 11.5508C14.2376 11.5378 14.3418 11.528 14.4395 11.5215C14.5436 11.515 14.638 11.5117 14.7227 11.5117C16.1875 11.5117 17.3887 12.0065 18.3262 12.9961C19.2702 13.9792 19.7422 15.2389 19.7422 16.7754C19.7422 18.3639 19.2083 19.6725 18.1406 20.7012C17.0729 21.7298 15.7285 22.2441 14.1074 22.2441C12.1087 22.2441 10.5332 21.3066 9.38086 19.4316L11.0996 17.9766C11.5749 18.7839 12.0534 19.3535 12.5352 19.6855C13.0169 20.0111 13.6061 20.1738 14.3027 20.1738C15.2142 20.1738 15.9792 19.8548 16.5977 19.2168C17.2161 18.5592 17.5254 17.7617 17.5254 16.8242C17.5254 15.8607 17.2194 15.0729 16.6074 14.4609C15.9954 13.8294 15.2305 13.5137 14.3125 13.5137C13.2904 13.5137 12.4082 13.9596 11.666 14.8516H10.9141L13.2871 6.92188H19.5176V9.05078Z" fill="white"/>
</svg>
